<mxfile host="app.diagrams.net" agent="Mozilla/5.0 (Windows NT 10.0; Win64; x64) AppleWebKit/537.36 (KHTML, like Gecko) Chrome/127.0.0.0 Safari/537.36" version="24.7.6">
  <diagram id="C5RBs43oDa-KdzZeNtuy" name="Page-1">
    <mxGraphModel dx="1290" dy="565" grid="1" gridSize="10" guides="1" tooltips="1" connect="1" arrows="1" fold="1" page="1" pageScale="1" pageWidth="827" pageHeight="1169" math="0" shadow="0">
      <root>
        <mxCell id="WIyWlLk6GJQsqaUBKTNV-0" />
        <mxCell id="WIyWlLk6GJQsqaUBKTNV-1" parent="WIyWlLk6GJQsqaUBKTNV-0" />
        <mxCell id="OP3FEe7nyif8FC1oB9EB-0" value="Start" style="rounded=1;whiteSpace=wrap;html=1;fontSize=12;glass=0;strokeWidth=1;shadow=0;" vertex="1" parent="WIyWlLk6GJQsqaUBKTNV-1">
          <mxGeometry x="350" y="100" width="120" height="40" as="geometry" />
        </mxCell>
        <mxCell id="OP3FEe7nyif8FC1oB9EB-1" value="Have an account?" style="rounded=1;whiteSpace=wrap;html=1;fontSize=12;glass=0;strokeWidth=1;shadow=0;" vertex="1" parent="WIyWlLk6GJQsqaUBKTNV-1">
          <mxGeometry x="350" y="190" width="120" height="40" as="geometry" />
        </mxCell>
        <mxCell id="OP3FEe7nyif8FC1oB9EB-2" value="" style="endArrow=classic;html=1;rounded=0;exitX=0;exitY=0.5;exitDx=0;exitDy=0;entryX=1;entryY=0.5;entryDx=0;entryDy=0;" edge="1" parent="WIyWlLk6GJQsqaUBKTNV-1" source="OP3FEe7nyif8FC1oB9EB-1" target="OP3FEe7nyif8FC1oB9EB-3">
          <mxGeometry width="50" height="50" relative="1" as="geometry">
            <mxPoint x="290" y="210" as="sourcePoint" />
            <mxPoint x="300" y="240" as="targetPoint" />
          </mxGeometry>
        </mxCell>
        <mxCell id="OP3FEe7nyif8FC1oB9EB-3" value="Sign Up" style="rounded=1;whiteSpace=wrap;html=1;" vertex="1" parent="WIyWlLk6GJQsqaUBKTNV-1">
          <mxGeometry x="190" y="190" width="100" height="40" as="geometry" />
        </mxCell>
        <mxCell id="OP3FEe7nyif8FC1oB9EB-4" value="" style="endArrow=classic;html=1;rounded=0;exitX=0;exitY=0.5;exitDx=0;exitDy=0;" edge="1" parent="WIyWlLk6GJQsqaUBKTNV-1" source="OP3FEe7nyif8FC1oB9EB-3">
          <mxGeometry width="50" height="50" relative="1" as="geometry">
            <mxPoint x="150" y="210" as="sourcePoint" />
            <mxPoint x="140" y="210" as="targetPoint" />
          </mxGeometry>
        </mxCell>
        <mxCell id="OP3FEe7nyif8FC1oB9EB-5" value="Fill Infrormation" style="rounded=0;whiteSpace=wrap;html=1;" vertex="1" parent="WIyWlLk6GJQsqaUBKTNV-1">
          <mxGeometry x="30" y="190" width="110" height="40" as="geometry" />
        </mxCell>
        <mxCell id="OP3FEe7nyif8FC1oB9EB-6" value="" style="endArrow=classic;html=1;rounded=0;exitX=0.5;exitY=1;exitDx=0;exitDy=0;entryX=0.5;entryY=0;entryDx=0;entryDy=0;" edge="1" parent="WIyWlLk6GJQsqaUBKTNV-1" source="OP3FEe7nyif8FC1oB9EB-5" target="OP3FEe7nyif8FC1oB9EB-7">
          <mxGeometry width="50" height="50" relative="1" as="geometry">
            <mxPoint x="350" y="350" as="sourcePoint" />
            <mxPoint x="85" y="270" as="targetPoint" />
          </mxGeometry>
        </mxCell>
        <mxCell id="OP3FEe7nyif8FC1oB9EB-7" value="Submit" style="rounded=0;whiteSpace=wrap;html=1;" vertex="1" parent="WIyWlLk6GJQsqaUBKTNV-1">
          <mxGeometry x="30" y="280" width="110" height="40" as="geometry" />
        </mxCell>
        <mxCell id="OP3FEe7nyif8FC1oB9EB-8" value="" style="endArrow=classic;html=1;rounded=0;exitX=1;exitY=0.5;exitDx=0;exitDy=0;entryX=0;entryY=0.5;entryDx=0;entryDy=0;" edge="1" parent="WIyWlLk6GJQsqaUBKTNV-1" source="OP3FEe7nyif8FC1oB9EB-7" target="OP3FEe7nyif8FC1oB9EB-9">
          <mxGeometry width="50" height="50" relative="1" as="geometry">
            <mxPoint x="350" y="350" as="sourcePoint" />
            <mxPoint x="360" y="290" as="targetPoint" />
          </mxGeometry>
        </mxCell>
        <mxCell id="OP3FEe7nyif8FC1oB9EB-9" value="login" style="rounded=0;whiteSpace=wrap;html=1;" vertex="1" parent="WIyWlLk6GJQsqaUBKTNV-1">
          <mxGeometry x="360" y="275" width="100" height="50" as="geometry" />
        </mxCell>
        <mxCell id="OP3FEe7nyif8FC1oB9EB-10" value="" style="endArrow=classic;html=1;rounded=0;exitX=0.5;exitY=1;exitDx=0;exitDy=0;entryX=0.5;entryY=0;entryDx=0;entryDy=0;" edge="1" parent="WIyWlLk6GJQsqaUBKTNV-1" source="OP3FEe7nyif8FC1oB9EB-1" target="OP3FEe7nyif8FC1oB9EB-9">
          <mxGeometry width="50" height="50" relative="1" as="geometry">
            <mxPoint x="350" y="350" as="sourcePoint" />
            <mxPoint x="400" y="300" as="targetPoint" />
          </mxGeometry>
        </mxCell>
        <mxCell id="OP3FEe7nyif8FC1oB9EB-11" value="Yes" style="text;html=1;align=center;verticalAlign=middle;resizable=0;points=[];autosize=1;strokeColor=none;fillColor=none;" vertex="1" parent="WIyWlLk6GJQsqaUBKTNV-1">
          <mxGeometry x="410" y="238" width="40" height="30" as="geometry" />
        </mxCell>
        <mxCell id="OP3FEe7nyif8FC1oB9EB-12" value="No" style="text;html=1;align=center;verticalAlign=middle;resizable=0;points=[];autosize=1;strokeColor=none;fillColor=none;" vertex="1" parent="WIyWlLk6GJQsqaUBKTNV-1">
          <mxGeometry x="300" y="180" width="40" height="30" as="geometry" />
        </mxCell>
        <mxCell id="OP3FEe7nyif8FC1oB9EB-13" value="" style="endArrow=classic;html=1;rounded=0;exitX=0.5;exitY=1;exitDx=0;exitDy=0;" edge="1" parent="WIyWlLk6GJQsqaUBKTNV-1" source="OP3FEe7nyif8FC1oB9EB-9">
          <mxGeometry width="50" height="50" relative="1" as="geometry">
            <mxPoint x="350" y="250" as="sourcePoint" />
            <mxPoint x="410" y="380" as="targetPoint" />
          </mxGeometry>
        </mxCell>
        <mxCell id="OP3FEe7nyif8FC1oB9EB-14" value="Authorised?" style="rhombus;whiteSpace=wrap;html=1;" vertex="1" parent="WIyWlLk6GJQsqaUBKTNV-1">
          <mxGeometry x="350" y="380" width="120" height="80" as="geometry" />
        </mxCell>
        <mxCell id="OP3FEe7nyif8FC1oB9EB-15" value="" style="edgeStyle=elbowEdgeStyle;elbow=vertical;endArrow=classic;html=1;curved=0;rounded=0;endSize=8;startSize=8;exitX=1;exitY=0.5;exitDx=0;exitDy=0;entryX=1;entryY=0.5;entryDx=0;entryDy=0;" edge="1" parent="WIyWlLk6GJQsqaUBKTNV-1" source="OP3FEe7nyif8FC1oB9EB-14" target="OP3FEe7nyif8FC1oB9EB-9">
          <mxGeometry width="50" height="50" relative="1" as="geometry">
            <mxPoint x="350" y="250" as="sourcePoint" />
            <mxPoint x="400" y="200" as="targetPoint" />
            <Array as="points">
              <mxPoint x="490" y="420" />
            </Array>
          </mxGeometry>
        </mxCell>
        <mxCell id="OP3FEe7nyif8FC1oB9EB-16" value="No" style="text;html=1;align=center;verticalAlign=middle;resizable=0;points=[];autosize=1;strokeColor=none;fillColor=none;" vertex="1" parent="WIyWlLk6GJQsqaUBKTNV-1">
          <mxGeometry x="440" y="338" width="40" height="30" as="geometry" />
        </mxCell>
        <mxCell id="OP3FEe7nyif8FC1oB9EB-17" value="" style="endArrow=classic;html=1;rounded=0;exitX=0.5;exitY=1;exitDx=0;exitDy=0;" edge="1" parent="WIyWlLk6GJQsqaUBKTNV-1" source="OP3FEe7nyif8FC1oB9EB-14">
          <mxGeometry width="50" height="50" relative="1" as="geometry">
            <mxPoint x="350" y="450" as="sourcePoint" />
            <mxPoint x="410" y="510" as="targetPoint" />
          </mxGeometry>
        </mxCell>
        <mxCell id="OP3FEe7nyif8FC1oB9EB-18" value="Login into System" style="rounded=0;whiteSpace=wrap;html=1;" vertex="1" parent="WIyWlLk6GJQsqaUBKTNV-1">
          <mxGeometry x="360" y="510" width="110" height="50" as="geometry" />
        </mxCell>
        <mxCell id="OP3FEe7nyif8FC1oB9EB-19" value="Create Reels" style="rounded=0;whiteSpace=wrap;html=1;" vertex="1" parent="WIyWlLk6GJQsqaUBKTNV-1">
          <mxGeometry x="140" y="660" width="110" height="40" as="geometry" />
        </mxCell>
        <mxCell id="OP3FEe7nyif8FC1oB9EB-21" value="" style="endArrow=classic;html=1;rounded=0;exitX=0.5;exitY=1;exitDx=0;exitDy=0;entryX=0.5;entryY=0;entryDx=0;entryDy=0;" edge="1" parent="WIyWlLk6GJQsqaUBKTNV-1" source="OP3FEe7nyif8FC1oB9EB-18" target="OP3FEe7nyif8FC1oB9EB-19">
          <mxGeometry width="50" height="50" relative="1" as="geometry">
            <mxPoint x="350" y="650" as="sourcePoint" />
            <mxPoint x="400" y="600" as="targetPoint" />
          </mxGeometry>
        </mxCell>
        <mxCell id="OP3FEe7nyif8FC1oB9EB-22" value="" style="endArrow=classic;html=1;rounded=0;entryX=0.5;entryY=0;entryDx=0;entryDy=0;exitX=0.5;exitY=1;exitDx=0;exitDy=0;" edge="1" parent="WIyWlLk6GJQsqaUBKTNV-1" source="OP3FEe7nyif8FC1oB9EB-18">
          <mxGeometry width="50" height="50" relative="1" as="geometry">
            <mxPoint x="350" y="650" as="sourcePoint" />
            <mxPoint x="610" y="660" as="targetPoint" />
          </mxGeometry>
        </mxCell>
        <mxCell id="OP3FEe7nyif8FC1oB9EB-23" value="End" style="rounded=1;whiteSpace=wrap;html=1;" vertex="1" parent="WIyWlLk6GJQsqaUBKTNV-1">
          <mxGeometry x="355" y="1030" width="125" height="50" as="geometry" />
        </mxCell>
        <mxCell id="OP3FEe7nyif8FC1oB9EB-26" value="Yes" style="text;html=1;align=center;verticalAlign=middle;resizable=0;points=[];autosize=1;strokeColor=none;fillColor=none;" vertex="1" parent="WIyWlLk6GJQsqaUBKTNV-1">
          <mxGeometry x="410" y="470" width="40" height="30" as="geometry" />
        </mxCell>
        <mxCell id="OP3FEe7nyif8FC1oB9EB-28" value="" style="endArrow=classic;html=1;rounded=0;exitX=0.5;exitY=1;exitDx=0;exitDy=0;entryX=0.5;entryY=0;entryDx=0;entryDy=0;" edge="1" parent="WIyWlLk6GJQsqaUBKTNV-1" source="OP3FEe7nyif8FC1oB9EB-18" target="OP3FEe7nyif8FC1oB9EB-35">
          <mxGeometry width="50" height="50" relative="1" as="geometry">
            <mxPoint x="350" y="750" as="sourcePoint" />
            <mxPoint x="408.75" y="660" as="targetPoint" />
          </mxGeometry>
        </mxCell>
        <mxCell id="OP3FEe7nyif8FC1oB9EB-30" value="" style="endArrow=classic;html=1;rounded=0;entryX=0.5;entryY=0;entryDx=0;entryDy=0;exitX=0.5;exitY=1;exitDx=0;exitDy=0;" edge="1" parent="WIyWlLk6GJQsqaUBKTNV-1" source="OP3FEe7nyif8FC1oB9EB-0" target="OP3FEe7nyif8FC1oB9EB-1">
          <mxGeometry width="50" height="50" relative="1" as="geometry">
            <mxPoint x="350" y="250" as="sourcePoint" />
            <mxPoint x="400" y="200" as="targetPoint" />
          </mxGeometry>
        </mxCell>
        <mxCell id="OP3FEe7nyif8FC1oB9EB-31" value="Create Post" style="rounded=0;whiteSpace=wrap;html=1;" vertex="1" parent="WIyWlLk6GJQsqaUBKTNV-1">
          <mxGeometry x="10" y="660" width="110" height="40" as="geometry" />
        </mxCell>
        <mxCell id="OP3FEe7nyif8FC1oB9EB-32" value="Edit Profile" style="rounded=0;whiteSpace=wrap;html=1;" vertex="1" parent="WIyWlLk6GJQsqaUBKTNV-1">
          <mxGeometry x="700" y="660" width="110" height="40" as="geometry" />
        </mxCell>
        <mxCell id="OP3FEe7nyif8FC1oB9EB-33" value="Live Chat" style="rounded=0;whiteSpace=wrap;html=1;" vertex="1" parent="WIyWlLk6GJQsqaUBKTNV-1">
          <mxGeometry x="560" y="660" width="110" height="40" as="geometry" />
        </mxCell>
        <mxCell id="OP3FEe7nyif8FC1oB9EB-34" value="See Notification" style="rounded=0;whiteSpace=wrap;html=1;" vertex="1" parent="WIyWlLk6GJQsqaUBKTNV-1">
          <mxGeometry x="420" y="660" width="110" height="40" as="geometry" />
        </mxCell>
        <mxCell id="OP3FEe7nyif8FC1oB9EB-35" value="Create Story" style="rounded=0;whiteSpace=wrap;html=1;" vertex="1" parent="WIyWlLk6GJQsqaUBKTNV-1">
          <mxGeometry x="280" y="660" width="110" height="40" as="geometry" />
        </mxCell>
        <mxCell id="OP3FEe7nyif8FC1oB9EB-37" value="" style="endArrow=classic;html=1;rounded=0;exitX=0.5;exitY=1;exitDx=0;exitDy=0;entryX=0.5;entryY=0;entryDx=0;entryDy=0;" edge="1" parent="WIyWlLk6GJQsqaUBKTNV-1" source="OP3FEe7nyif8FC1oB9EB-18" target="OP3FEe7nyif8FC1oB9EB-34">
          <mxGeometry width="50" height="50" relative="1" as="geometry">
            <mxPoint x="425" y="570" as="sourcePoint" />
            <mxPoint x="418.75" y="670" as="targetPoint" />
          </mxGeometry>
        </mxCell>
        <mxCell id="OP3FEe7nyif8FC1oB9EB-38" value="" style="endArrow=classic;html=1;rounded=0;entryX=0.5;entryY=0;entryDx=0;entryDy=0;exitX=0.5;exitY=1;exitDx=0;exitDy=0;" edge="1" parent="WIyWlLk6GJQsqaUBKTNV-1" source="OP3FEe7nyif8FC1oB9EB-18" target="OP3FEe7nyif8FC1oB9EB-32">
          <mxGeometry width="50" height="50" relative="1" as="geometry">
            <mxPoint x="425" y="570" as="sourcePoint" />
            <mxPoint x="620" y="670" as="targetPoint" />
          </mxGeometry>
        </mxCell>
        <mxCell id="OP3FEe7nyif8FC1oB9EB-39" value="" style="endArrow=classic;html=1;rounded=0;exitX=0.5;exitY=1;exitDx=0;exitDy=0;entryX=0.5;entryY=0;entryDx=0;entryDy=0;" edge="1" parent="WIyWlLk6GJQsqaUBKTNV-1" source="OP3FEe7nyif8FC1oB9EB-18" target="OP3FEe7nyif8FC1oB9EB-31">
          <mxGeometry width="50" height="50" relative="1" as="geometry">
            <mxPoint x="425" y="570" as="sourcePoint" />
            <mxPoint x="205" y="670" as="targetPoint" />
          </mxGeometry>
        </mxCell>
        <mxCell id="OP3FEe7nyif8FC1oB9EB-40" value="Comment" style="rounded=0;whiteSpace=wrap;html=1;" vertex="1" parent="WIyWlLk6GJQsqaUBKTNV-1">
          <mxGeometry x="80" y="750" width="110" height="40" as="geometry" />
        </mxCell>
        <mxCell id="OP3FEe7nyif8FC1oB9EB-41" value="Search" style="rounded=0;whiteSpace=wrap;html=1;" vertex="1" parent="WIyWlLk6GJQsqaUBKTNV-1">
          <mxGeometry x="220" y="750" width="110" height="40" as="geometry" />
        </mxCell>
        <mxCell id="OP3FEe7nyif8FC1oB9EB-42" value="Delete post" style="rounded=0;whiteSpace=wrap;html=1;" vertex="1" parent="WIyWlLk6GJQsqaUBKTNV-1">
          <mxGeometry x="500" y="750" width="110" height="40" as="geometry" />
        </mxCell>
        <mxCell id="OP3FEe7nyif8FC1oB9EB-43" value="Save" style="rounded=0;whiteSpace=wrap;html=1;" vertex="1" parent="WIyWlLk6GJQsqaUBKTNV-1">
          <mxGeometry x="362.5" y="750" width="110" height="40" as="geometry" />
        </mxCell>
        <mxCell id="OP3FEe7nyif8FC1oB9EB-44" value="Like" style="rounded=0;whiteSpace=wrap;html=1;" vertex="1" parent="WIyWlLk6GJQsqaUBKTNV-1">
          <mxGeometry x="634" y="750" width="110" height="40" as="geometry" />
        </mxCell>
        <mxCell id="OP3FEe7nyif8FC1oB9EB-47" value="" style="endArrow=classic;html=1;rounded=0;entryX=0.455;entryY=0;entryDx=0;entryDy=0;entryPerimeter=0;exitX=0.5;exitY=1;exitDx=0;exitDy=0;" edge="1" parent="WIyWlLk6GJQsqaUBKTNV-1" source="OP3FEe7nyif8FC1oB9EB-18" target="OP3FEe7nyif8FC1oB9EB-40">
          <mxGeometry width="50" height="50" relative="1" as="geometry">
            <mxPoint x="130" y="650" as="sourcePoint" />
            <mxPoint x="440" y="780" as="targetPoint" />
            <Array as="points">
              <mxPoint x="130" y="660" />
            </Array>
          </mxGeometry>
        </mxCell>
        <mxCell id="OP3FEe7nyif8FC1oB9EB-48" value="" style="endArrow=classic;html=1;rounded=0;entryX=0.425;entryY=0.035;entryDx=0;entryDy=0;entryPerimeter=0;exitX=0.5;exitY=1;exitDx=0;exitDy=0;" edge="1" parent="WIyWlLk6GJQsqaUBKTNV-1" source="OP3FEe7nyif8FC1oB9EB-18" target="OP3FEe7nyif8FC1oB9EB-41">
          <mxGeometry width="50" height="50" relative="1" as="geometry">
            <mxPoint x="267" y="650" as="sourcePoint" />
            <mxPoint x="440" y="780" as="targetPoint" />
            <Array as="points">
              <mxPoint x="267" y="660" />
            </Array>
          </mxGeometry>
        </mxCell>
        <mxCell id="OP3FEe7nyif8FC1oB9EB-49" value="" style="endArrow=classic;html=1;rounded=0;entryX=0.417;entryY=-0.005;entryDx=0;entryDy=0;entryPerimeter=0;exitX=0.5;exitY=1;exitDx=0;exitDy=0;" edge="1" parent="WIyWlLk6GJQsqaUBKTNV-1" source="OP3FEe7nyif8FC1oB9EB-18" target="OP3FEe7nyif8FC1oB9EB-43">
          <mxGeometry width="50" height="50" relative="1" as="geometry">
            <mxPoint x="410" y="560" as="sourcePoint" />
            <mxPoint x="277" y="761" as="targetPoint" />
            <Array as="points">
              <mxPoint x="408" y="660" />
            </Array>
          </mxGeometry>
        </mxCell>
        <mxCell id="OP3FEe7nyif8FC1oB9EB-50" value="" style="endArrow=classic;html=1;rounded=0;entryX=0.404;entryY=-0.005;entryDx=0;entryDy=0;entryPerimeter=0;exitX=0.5;exitY=1;exitDx=0;exitDy=0;" edge="1" parent="WIyWlLk6GJQsqaUBKTNV-1" source="OP3FEe7nyif8FC1oB9EB-18" target="OP3FEe7nyif8FC1oB9EB-42">
          <mxGeometry width="50" height="50" relative="1" as="geometry">
            <mxPoint x="544" y="650" as="sourcePoint" />
            <mxPoint x="440" y="780" as="targetPoint" />
            <Array as="points">
              <mxPoint x="544" y="660" />
            </Array>
          </mxGeometry>
        </mxCell>
        <mxCell id="OP3FEe7nyif8FC1oB9EB-51" value="" style="endArrow=classic;html=1;rounded=0;entryX=0.5;entryY=0;entryDx=0;entryDy=0;exitX=0.5;exitY=1;exitDx=0;exitDy=0;" edge="1" parent="WIyWlLk6GJQsqaUBKTNV-1" source="OP3FEe7nyif8FC1oB9EB-18" target="OP3FEe7nyif8FC1oB9EB-44">
          <mxGeometry width="50" height="50" relative="1" as="geometry">
            <mxPoint x="554" y="660" as="sourcePoint" />
            <mxPoint x="554" y="760" as="targetPoint" />
            <Array as="points">
              <mxPoint x="690" y="660" />
            </Array>
          </mxGeometry>
        </mxCell>
        <mxCell id="OP3FEe7nyif8FC1oB9EB-52" value="" style="endArrow=classic;html=1;rounded=0;exitX=0.5;exitY=1;exitDx=0;exitDy=0;entryX=0;entryY=0.5;entryDx=0;entryDy=0;" edge="1" parent="WIyWlLk6GJQsqaUBKTNV-1" source="OP3FEe7nyif8FC1oB9EB-31" target="OP3FEe7nyif8FC1oB9EB-23">
          <mxGeometry width="50" height="50" relative="1" as="geometry">
            <mxPoint x="390" y="830" as="sourcePoint" />
            <mxPoint x="440" y="780" as="targetPoint" />
            <Array as="points">
              <mxPoint x="65" y="880" />
            </Array>
          </mxGeometry>
        </mxCell>
        <mxCell id="OP3FEe7nyif8FC1oB9EB-53" value="" style="endArrow=classic;html=1;rounded=0;exitX=0.5;exitY=1;exitDx=0;exitDy=0;entryX=0;entryY=0.5;entryDx=0;entryDy=0;" edge="1" parent="WIyWlLk6GJQsqaUBKTNV-1" source="OP3FEe7nyif8FC1oB9EB-40" target="OP3FEe7nyif8FC1oB9EB-23">
          <mxGeometry width="50" height="50" relative="1" as="geometry">
            <mxPoint x="141" y="790" as="sourcePoint" />
            <mxPoint x="371" y="1065" as="targetPoint" />
            <Array as="points">
              <mxPoint x="136" y="880" />
            </Array>
          </mxGeometry>
        </mxCell>
        <mxCell id="OP3FEe7nyif8FC1oB9EB-54" value="" style="endArrow=classic;html=1;rounded=0;entryX=0;entryY=0.5;entryDx=0;entryDy=0;" edge="1" parent="WIyWlLk6GJQsqaUBKTNV-1" target="OP3FEe7nyif8FC1oB9EB-23">
          <mxGeometry width="50" height="50" relative="1" as="geometry">
            <mxPoint x="200" y="700" as="sourcePoint" />
            <mxPoint x="440" y="780" as="targetPoint" />
            <Array as="points">
              <mxPoint x="200" y="880" />
            </Array>
          </mxGeometry>
        </mxCell>
        <mxCell id="OP3FEe7nyif8FC1oB9EB-56" value="" style="endArrow=classic;html=1;rounded=0;exitX=0.5;exitY=1;exitDx=0;exitDy=0;entryX=0;entryY=0.5;entryDx=0;entryDy=0;" edge="1" parent="WIyWlLk6GJQsqaUBKTNV-1" source="OP3FEe7nyif8FC1oB9EB-41" target="OP3FEe7nyif8FC1oB9EB-23">
          <mxGeometry width="50" height="50" relative="1" as="geometry">
            <mxPoint x="390" y="830" as="sourcePoint" />
            <mxPoint x="440" y="780" as="targetPoint" />
            <Array as="points">
              <mxPoint x="275" y="880" />
            </Array>
          </mxGeometry>
        </mxCell>
        <mxCell id="OP3FEe7nyif8FC1oB9EB-57" value="" style="endArrow=classic;html=1;rounded=0;entryX=0;entryY=0.5;entryDx=0;entryDy=0;" edge="1" parent="WIyWlLk6GJQsqaUBKTNV-1" target="OP3FEe7nyif8FC1oB9EB-23">
          <mxGeometry width="50" height="50" relative="1" as="geometry">
            <mxPoint x="343" y="700" as="sourcePoint" />
            <mxPoint x="440" y="780" as="targetPoint" />
            <Array as="points">
              <mxPoint x="340" y="880" />
            </Array>
          </mxGeometry>
        </mxCell>
        <mxCell id="OP3FEe7nyif8FC1oB9EB-58" value="" style="endArrow=classic;html=1;rounded=0;entryX=0.5;entryY=0;entryDx=0;entryDy=0;exitX=0.5;exitY=1;exitDx=0;exitDy=0;" edge="1" parent="WIyWlLk6GJQsqaUBKTNV-1" source="OP3FEe7nyif8FC1oB9EB-43" target="OP3FEe7nyif8FC1oB9EB-23">
          <mxGeometry width="50" height="50" relative="1" as="geometry">
            <mxPoint x="390" y="830" as="sourcePoint" />
            <mxPoint x="440" y="780" as="targetPoint" />
          </mxGeometry>
        </mxCell>
        <mxCell id="OP3FEe7nyif8FC1oB9EB-59" value="" style="endArrow=classic;html=1;rounded=0;entryX=1;entryY=0.5;entryDx=0;entryDy=0;exitX=0.578;exitY=0.965;exitDx=0;exitDy=0;exitPerimeter=0;" edge="1" parent="WIyWlLk6GJQsqaUBKTNV-1" source="OP3FEe7nyif8FC1oB9EB-34" target="OP3FEe7nyif8FC1oB9EB-23">
          <mxGeometry width="50" height="50" relative="1" as="geometry">
            <mxPoint x="480" y="710" as="sourcePoint" />
            <mxPoint x="440" y="880" as="targetPoint" />
            <Array as="points">
              <mxPoint x="490" y="880" />
            </Array>
          </mxGeometry>
        </mxCell>
        <mxCell id="OP3FEe7nyif8FC1oB9EB-60" value="" style="endArrow=classic;html=1;rounded=0;exitX=0.5;exitY=1;exitDx=0;exitDy=0;entryX=1;entryY=0.5;entryDx=0;entryDy=0;" edge="1" parent="WIyWlLk6GJQsqaUBKTNV-1" source="OP3FEe7nyif8FC1oB9EB-42" target="OP3FEe7nyif8FC1oB9EB-23">
          <mxGeometry width="50" height="50" relative="1" as="geometry">
            <mxPoint x="390" y="930" as="sourcePoint" />
            <mxPoint x="440" y="880" as="targetPoint" />
            <Array as="points">
              <mxPoint x="555" y="880" />
            </Array>
          </mxGeometry>
        </mxCell>
        <mxCell id="OP3FEe7nyif8FC1oB9EB-61" value="" style="endArrow=classic;html=1;rounded=0;exitX=0.571;exitY=1.025;exitDx=0;exitDy=0;entryX=1;entryY=0.5;entryDx=0;entryDy=0;exitPerimeter=0;" edge="1" parent="WIyWlLk6GJQsqaUBKTNV-1" source="OP3FEe7nyif8FC1oB9EB-33" target="OP3FEe7nyif8FC1oB9EB-23">
          <mxGeometry width="50" height="50" relative="1" as="geometry">
            <mxPoint x="390" y="830" as="sourcePoint" />
            <mxPoint x="440" y="780" as="targetPoint" />
            <Array as="points">
              <mxPoint x="620" y="880" />
            </Array>
          </mxGeometry>
        </mxCell>
        <mxCell id="OP3FEe7nyif8FC1oB9EB-62" value="" style="endArrow=classic;html=1;rounded=0;entryX=1;entryY=0.5;entryDx=0;entryDy=0;exitX=0.5;exitY=1;exitDx=0;exitDy=0;" edge="1" parent="WIyWlLk6GJQsqaUBKTNV-1" source="OP3FEe7nyif8FC1oB9EB-44" target="OP3FEe7nyif8FC1oB9EB-23">
          <mxGeometry width="50" height="50" relative="1" as="geometry">
            <mxPoint x="390" y="830" as="sourcePoint" />
            <mxPoint x="440" y="780" as="targetPoint" />
            <Array as="points">
              <mxPoint x="690" y="880" />
            </Array>
          </mxGeometry>
        </mxCell>
        <mxCell id="OP3FEe7nyif8FC1oB9EB-65" value="" style="endArrow=classic;html=1;rounded=0;exitX=0.5;exitY=1;exitDx=0;exitDy=0;entryX=1;entryY=0.5;entryDx=0;entryDy=0;" edge="1" parent="WIyWlLk6GJQsqaUBKTNV-1" source="OP3FEe7nyif8FC1oB9EB-32" target="OP3FEe7nyif8FC1oB9EB-23">
          <mxGeometry width="50" height="50" relative="1" as="geometry">
            <mxPoint x="390" y="830" as="sourcePoint" />
            <mxPoint x="440" y="780" as="targetPoint" />
            <Array as="points">
              <mxPoint x="755" y="880" />
            </Array>
          </mxGeometry>
        </mxCell>
      </root>
    </mxGraphModel>
  </diagram>
</mxfile>
